<?xml version="1.0" encoding="UTF-8"?>
<svg id="Layer_1" data-name="Layer 1" xmlns="http://www.w3.org/2000/svg" viewBox="0 0 1449.05 429.95">
  <defs>
    <style>
      .cls-1 {
        fill: #fff;
      }
    </style>
  </defs>
  <path class="cls-1" d="M389.39,28.99c-3.3,3.66-12.01,10.5-16.33,13.14-4.8,2.94-10.52,6.08-16.29,6.18-2.49-2.5,7.82-7.81,9.21-8.99,3.08-2.63,8.06-6.82,10.78-9.48,13.49-13.17,12.5-18.8-7.49-19.57-51.89-1.98-152.75,53.08-187.92,90.97-14.76,15.9-34.88,50.25,5.03,45.99,20.7-2.21,45.11-8.64,65.23-14.71,15.04-4.54,30.32-11.94,44.97-15.99,5.19-1.43,12.1-4.01,16.25.17,7.25,7.32-14.1,11.07-19.01,13.05-30.55,12.34-62.41,30.44-91.28,46.62-48.49,27.18-119.82,69.16-154.55,112.24-36.19,44.88,19.13,31.14,44.15,23.16,51.73-16.5,110.45-45.74,158.71-71.12,14.07-7.4,57.21-28.89,65.37-39.55,4.2-5.49,6.75-12.82,11.59-18.39,3.72-4.27,8.84-10.08,13.49-3.48.53.7.43,1.39.32,2.2-.94,6.84-14.58,23.18-17.71,31.36-1.28,3.35-2.38,6.69-2.12,10.36,15.45-4.74,28.56-19.32,39.48-30.95,3.22-3.42,10.22-15.08,15-14.98,2.17.04,4.32,3.42,4.37,5.45.13,6.04-10.85,21.07-11.7,29.29-1.38,13.45,21.26-4.86,24.8-8.27,8.66-8.36,10.1-19.97,21.04-26.92,9.03-5.73,21.32-5.65,24.77,5.8l-4.35,3.3c-9.86-9.06-18.44,2.89-22.66,11.65-11.49,23.89,7.41,17.74,21.1,10.11,16.5-9.2,33.44-33.37,50.63-35.29,6.5-.72,11.15.32,15.77,4.99,11.32,11.44-.95,17.85,4.38,29.59,3.86,8.5,17.49,6.01,24.66,4.21,13.12-3.3,27.53-10.19,39.55-16.41,3.42-1.77,22.16-13.88,23.96-12.5-.64,1-1.55,3.03-2.3,3.67-13.68,11.83-51.47,32.56-69.16,34.27-15.56,1.51-30.78-4.07-29.48-21.97-1.73-.45-2,.71-3,1.49-9.32,7.18-21.5,23.2-35.17,18.18-2.5-.92-6.17-3.69-6.66-6.43-.34-1.95,2.15-6.12-.62-5.23-2.29.73-8.19,6.07-11.2,7.79-13.11,7.46-36.61,18.79-37.78-5.8-13.17,14.04-40.95,32.44-38.97-2-7.06,7.34-35.74,34.19-45.52,22.26-3.66-4.47-2.75-10.06-2.44-15.27-7.5,5.48-15.28,10.91-23.18,15.79-39.72,24.54-84.64,48.44-127.23,67.62-26.43,11.9-76.46,33.77-104.39,34.51-33.09.87-39.61-18.26-21.94-43.91,37.04-53.77,133.54-102.89,190.61-135.17,1.09-.62,2.44-.77,3.68-.8-.04-1.66.64-2.16-1.29-1.8-17.62,3.3-57.84,14.32-71.08-1.27-14.98-17.63,7.86-46.59,20.37-59.41C216.43,47.16,318.83-4.69,377.29.34c19.33,1.66,25.71,13.59,12.1,28.66ZM458.7,209.16c6.97,1.29,12.62-3.75,17.46-8.01,2.87-2.52,12-11.59,13.54-14.44,2-3.71.38-4.79-3.5-4.59-7.98.42-26.35,18.15-27.49,27.04Z"/>
  <path class="cls-1" d="M1449.05,221.17l-3.48.99-100.99.96c-319.86,13.22-636.95,53.26-951.07,111.2-116.61,21.51-244.88,43.88-356.76,81.93-12.38,4.21-24.47,9.27-36.75,13.7l8.76-5.72c133.09-57.02,277.42-79.88,419.21-105.42,320.99-57.81,648.62-102.19,976.66-100.69l44.43,3.05Z"/>
  <path class="cls-1" d="M1015.96,149.84c-5.86,5.28-21.04,15.39-24.83,20.64-2,2.77-9.7,22.2-9.85,25.21-.64,13.51,14.97,5.77,20.99,1.91,13.66-8.76,22.48-21.71,36.54-30.41,8.34-5.16,25.49-14.26,34.47-7.46,10.65,8.07-3.08,17.77-3.93,26.07s3.34,7.66,9.33,5.24c5.08-2.05,16.15-11.02,19.61-15.35,1.82-2.28,3.84-7.8,5.26-9.22.52-.52,7.55-4.27,8.25-4.25,2.03.04,3.66,2.61,4.12,4.48-1.4,3.35-11.16,22.92-9.64,24.48,3.73.13,6.92.26,10.55-.94,5.22-1.73,21.84-14.34,26.44-18.52,8.15-7.4,12.22-20.33,24.48-20.56,7.52-.14,13.12,6.14,6.51,11.6l-3.52-1.52c-3.13.14.5,10.95.57,13.46.13,4.87-1.85,9.78-1.11,14.84.95,3.97,21.46.92,25.27.4,52.3-7.16,106.69-21.88,160.2-17.78,1.76.13,4.12.27,5.44,1.54-1.14,1.66-2.73,1.43-4.44,1.56-22.76,1.69-45.17,2.09-67.89,5.06-28.41,3.71-56.1,10.75-84.18,15.75-7.59,1.35-23.93,4.54-30.9,4.16-16.09-.88-16.02-13.84-13.39-26.53l-4.56-5.48c-11.72,9.3-22.7,20.79-35.82,28.13-11.97,6.7-24.98,8.67-24.66-9.16-7.87,6.63-25.86,21.8-34.42,8.94-1.78-2.67-1.71-4.76-2.53-7.48-.23-.75.39-2.19-1.5-1.45-3.42,1.33-11.32,8.93-15.59,11.4-8.07,4.68-23.1,9.87-25.84-2.84l-2.04-.57c-3.77,7.27-19.58,17.1-27.5,17.06-5.88-.03-12.83-4.56-14.72-10.34-2.37-7.23.44-13.7.72-20.72-14.01,10.23-41.17,32.91-59.37,25.4-1.62-.67-3.89-2.57-5.07-3.93l-4.49-8.47c-5.6,5.41-17.4,16.8-25.51,15.57-13.9-2.12-10.71-15.39-7.02-25.1.6-1.59,3.96-4.72.55-4.46-8.45,6.8-17.8,12.87-25.97,20-4.86,4.24-5.75,10.23-13.83,7.76-6.53-2-1.86-13.79,1.3-17.29.16-.74-1.02-.67-1.48-.48-2.73,1.12-8.37,7.17-11.6,9.39-7.33,5.04-21.19,14.64-30.15,12.33-4.54-1.17-8.53-7.04-7.28-11.76,1.44-5.45,17.96-30.08,23.08-30.95,15.71-2.69-4.22,22.26-6.4,26.63-.51,1.03-4.43,7.12-1.66,7.32,1.72.12,10.32-4.27,12.53-5.44,13.21-6.99,24.55-18.43,35.6-28.33,10.63,2.53-1.09,13.57-.15,19.81,9.12-5.09,24.78-22.75,34.97-23.06,15.15-.46,3.2,16.74,1.03,23.09-4.4,12.86-.52,15.65,10.71,7.93,12.75-8.76,14.35-16.62,22.78-27.18,9.25-11.6,25.84-17.83,34.72-2.24l-3.26,2.5c-6.8-5.06-13.52-3.48-19.14,2.34-3.75,3.88-13.82,20.27-10.28,25.05,1.54,1.91,6.49,2.33,8.97,2.12,10.59-.88,41.98-19.05,48.94-27.29,5.15-6.11,12.98-24.16,18.16-32.52,11.8-19.04,50.82-74.68,71.73-80.13,11.26-2.93,14.83,6.27,12.08,16.06-5.23,18.58-45.07,60.21-60.39,73.99ZM1067.3,71.31c-1.43-.26-2.45.24-3.71.78-16.01,6.87-50.45,57.93-60.66,74.23-1.46,2.33-3.6,5.06-3.58,7.9,5.1-5.59,12.21-9.93,17.47-14.99,14.9-14.31,40.33-41.23,47.96-59.95.47-1.14,2.86-7.65,2.51-7.97ZM1065.3,168.22c-8.37.33-17.53,5.32-24.31,10.15-2.28,1.63-16.54,14-13.66,16.81,7.27-.11,12.82-5.31,18.92-8.55l19.05-18.41Z"/>
  <path class="cls-1" d="M873.01,46.91c-8.62,10.49-23.85,23.72-35.25,31.2-4.35,2.85-27.47,16.4-31.28,13.17-.46-2.08,1.09-2.27,2.27-3.21,20.78-16.58,46.72-30.46,61.09-53.81,16.21-26.35-17.26-25.34-34.64-22.64-54.93,8.53-165.12,65.94-201.64,108.12-10.6,12.25-19.47,24.11-1.67,34.68,30.29,18,83.42,13.64,118.29,33.6,15.88,9.09,20.82,17.77,7.84,33.15-24.98,29.59-104.82,56.11-142.66,50.68-8.31-1.19-18.86-8.05-18.85-17.23s15.43-28.15,22.59-33.46c1.33-.99,9.48-6,9.47-2.5-7.72,9.53-23.58,22.63-23.01,35.95.41,9.53,16.73,8.89,23.57,8.55,32.96-1.6,87.12-21.22,112.86-42.03,13.08-10.58,18.86-18.52.06-26.98-32.92-14.81-99.47-15.83-123.93-34.96-22.65-17.72-1.54-41.5,12.95-55.97C673.67,60.68,771.68,10.85,831.07,1.49c35.51-5.59,74.7,5.56,41.93,45.42Z"/>
  <path class="cls-1" d="M1136.01,296.86c-2.53,2.26-16.64,2.36-18.51,4.46-2.8,3.16,1.06,19.69,3.74,23.25,3.8,5.06,15.3,4.66,20.58,2.56,6.46-2.58,4.4-11.39,3.85-17-.13-1.35-1.44-2.38,1.05-2.05,9.1,14.88,8.68,25.7-10.93,27.01-16.27,1.09-26.19-3.53-24.52-21.52l-1.99-.5c-3.63,7.6-15.1,24.47-23.71,25.78-1.79.27-2.16.15-3.27-1.31,5.66-6.03,11.77-12.7,16.4-19.55,1.15-1.7,1.48-3.72,2.53-5.46,1.28-2.12,5.53-6.82,6.02-7.98.84-2.01-1.54-1.53-2.51-1.52-3.3.02-19.42,4.47-18.41-1.35.63-3.64,17.16-5.28,20.5-7.54,2.66-3.76-3.55-22.64,2.95-21.74,5.04.7,4.51,16.57,7.45,20.26,6.57.45,14.85-3.51,19.95,1.9-.59.58-.69,1.86-1.17,2.29Z"/>
  <path class="cls-1" d="M1189.01,270.34c2.33,1.31,3.31,10.92,2.21,13.75l12.66-6.85c2.98-.28,2.65,4.95,2.15,6.69-2.68.88-16.26,6.3-12.81,10.15,7.39-.65,17.2-3.32,24.48-2,2.64.48,3.4,3.06,3.52,5.46-.22,1.95-22.62,4.01-26.01,3.53-1.06,6.43,6.01,6.71,9.93,9.55s5.76,6.33,5.06,11.42c-2.67,2.64-16.6-10.41-18.97-12.99.14,3.8-.25,7.67,0,11.48.21,3.27,4.4,19.87-2.53,19.27-6.1-.52-4.84-30.61-3.47-35.75-6.45-1.58-17.64,6.03-22.98,3.49l-1.82-2.14,1.48-3.43,22.85-7.89c1.01-3.94-2.05-22.19.6-23.86.69-.44,2.87-.35,3.66.09Z"/>
  <path class="cls-1" d="M828.32,133.37c5.02,3.21-8.22,22.13-15.43,14.9-3.04-6.18,10.6-17.98,15.43-14.9Z"/>
  <path class="cls-1" d="M1126.11,137.39c.95,7.06-4.27,16.31-12.42,11.91-2.43-3.34,7.15-17.19,12.42-11.91Z"/>
  <path class="cls-1" d="M1146.24,287.09c-1.94,1.91-13.82-6.6-10.98-10.98,3.6-1.9,13.28,8.71,10.98,10.98Z"/>
</svg>