<?xml version="1.0" encoding="UTF-8"?>
<svg id="Layer_1" data-name="Layer 1" xmlns="http://www.w3.org/2000/svg" viewBox="0 0 397.99 153.02">
  <defs>
    <style>
      .cls-1 {
        fill: #fff;
      }
    </style>
  </defs>
  <path class="cls-1" d="M75.24,10.94c-5.19-.15-9.77-3.92-14.88-1.43-12.9,6.29-30.65,26.38-37.42,39.02-9.05,16.87-15.59,34.04-5.38,51.94,6.99,12.26,23.26,23.29,36.77,27.14,8.92,2.54,12.7,2.14,20.93-2.37,9.81-5.39,22.68-21.9,18.04-33.55-.29-.74-3.21-5.51-3.53-5.58-7.24,1.02-14.62,2.53-21.99,1.82-1.77-.17-5.94-.86-6.29-2.67-1.05-5.47.65-8.01,5.57-9.97,5.67-2.26,18.8-2.86,24.79-1.25,3.34.9,6.97,3.75,9.53,4.2,3.99.71,11.43.16,15.08,2.25,2.15,1.23,2.1,7.35,1.83,9.54-.41,3.32-3.35,6.96-4.5,10.42-3.22,9.66-4.63,24.57-3.31,34.35.22,1.66.42,7.18-.8,8.09-1.03.76-2.16.27-2.91.57-.62.25-.49,1.88-3.05,1.16-.66-.19.09-1.51-1.28-1.21-1.03,2.47-4.35,1.55-4.92-1.04-1.25-5.68.28-15.07.43-21.03-2.38,1.64-4.1,4.1-6.28,5.95-24.81,21.07-61.43,7.75-80.99-14C-17.04,82.46,14.4,23.46,45.84,6.81c8.7-4.61,25.32-7.75,29.4,4.12Z"/>
  <path class="cls-1" d="M316.67,132.79l-10.96.67-1.26-2.42c-1.06,1.31-2.68,1.62-4.04,2.39-9.7,5.49-25.57,6.46-36.43,2.8-20.16-6.79-15.3-39.01-1.96-49.96,3.86-3.17,9.28-4.21,14.34-4.23,7.08-.03,12.9,1.98,18.51,6.03l8.68,8.93c-.05-17.32,1.84-34.61,3.06-51.85,7.63-3.16,7.25,4.28,7.7,9.79,1.32,16.36-.06,34.23.58,50.75.25,6.52,1.52,13.19,1.81,19.68.11,2.47-.03,4.96-.03,7.42ZM298.39,121.11c.65-.65,1.77-.81,2.11-1.83.3-1.12-6.56-12.93-7.81-14.71-3.01-4.3-10.93-13.32-16.35-13.57-4.62-.21-9.37,8-10.9,11.82-.93,2.32-3.02,9.6-3.09,11.85-.1,3.42,3.84,9.25,6.52,11.29,9.84,7.52,21.63,3.05,29.52-4.86Z"/>
  <path class="cls-1" d="M201.36,86.87l6.07-12.13c6.1-8.8,12.36-10.76,22.93-9.97,4.94.37,7.54,1.26,9.41,6.12,4.01,10.37,3.2,25.03,4.01,35.98.33,4.41.78,12.63,1.77,16.6.18.7,1.88.72,2.69,1.62,2.13,2.38,1.94,12.09-.3,14-1.81,1.54-8.89.92-11.36.64-1.51-1-3.88-19.65-4.16-22.71-.98-11.09-.47-22.34-2.48-33.33-.64-3.52-1.43-7.12-3.82-9.93-10.57,6.18-14.69,21.17-16.35,32.6-.8,5.51-.59,12.25-1.27,17.83-.29,2.39-.98,9.79-2.73,11-2.14,1.47-8.21.27-10.98.61l-6.01-70.99c2.17.35,6.37-.91,7.72.95,2.68,3.7,4.2,16.3,4.84,21.13Z"/>
  <path class="cls-1" d="M369.68,75.58c2.38,1.26,5.95,6.45,6.25,9.26,3.85.77,9.55-1.89,11.27,2.77,2.68,7.28-2.09,22.43-4.89,29.69-.67,1.74-2.35,3.31-2.72,5.04-.88,4.23,2.08,18.15,6.1,20.49,2.93,1.7,8.64-1.75,12.29-.63.18,8-3.69,10.28-11.07,10.74-7.81.48-10.95-.96-15.35-7.34l-3.77-10.55c-6.05,6.16-14.37,6.78-22.71,5.95-11.75-1.17-16.04-12.37-15.89-22.98.21-14.07,12.42-37.97,26.21-42.61,2.75-.92,11.79-1.15,14.27.17ZM361.31,125.87c1.07-1.06,6.37-8.1,6.65-9.18.53-2.06.41-5.68.84-8.12.77-4.44,2.75-11.58,2.85-15.69.03-1.29-3.13-5.96-4.13-7.1-3.06-3.47-4.93-3.22-8.32-.53-8.18,6.47-19.06,25.6-17.25,36.21.69,4.05,5.58,12.36,10.43,10.75,1.47-.49,7.7-5.12,8.94-6.34Z"/>
  <path class="cls-1" d="M136.21,141.54c-.37-2.98-1.54-6.33-1.78-9.26-1.71-20.71,2.1-44.64,3-65.61.75-17.4-.04-34.31,2.52-51.79.41-2.8,2.14-10.44,3.31-12.81,1.57-3.2,4.91-1.65,7.9-1.96.63.63-1.13,11.46-1.22,13.41-.83,17.65.11,36.07-.55,53.76-.69,18.6-5.28,43.93-1.72,61.34.98,4.78,1.82,8.3-.7,12.93h-10.76Z"/>
  <path class="cls-1" d="M164.89,136.61c-.95-3.56-1.9-6.62-2.39-10.45-1.36-10.72-.91-24.41,2.22-34.78.71-2.36,3.89-12.33,6.37-6.05,3.15,7.98,2.13,22.97,2.77,31.87.15,2.06.73,8.52,1.3,10.06.35.96,1.57.53,1.74,1.85.28,2.29-.06,5.23-.65,7.48h-11.36Z"/>
  <path class="cls-1" d="M169.59,60.91c1.98,3.89-.21,3.83-2.12,6.52-3.19,1.19-7.22,1.04-6.76-3.26.56-5.18,4.9-3.02,8.88-3.26Z"/>
</svg>